<svg xmlns="http://www.w3.org/2000/svg" version="1.1" xmlns:xlink="http://www.w3.org/1999/xlink" xmlns:svgjs="http://svgjs.dev/svgjs" width="1500" height="1500" viewBox="0 0 1500 1500"><rect width="1500" height="1500" fill="#ffffff"></rect><g transform="matrix(0.6666666666666666,0,0,0.6666666666666666,249.39393939393938,535.629302028666)"><svg viewBox="0 0 396 170" data-background-color="#ffffff" preserveAspectRatio="xMidYMid meet" height="643" width="1500" xmlns="http://www.w3.org/2000/svg" xmlns:xlink="http://www.w3.org/1999/xlink"><g id="tight-bounds" transform="matrix(1,0,0,1,0.2400000000000091,0.014818013515125017)"><svg viewBox="0 0 395.52 169.97036397296975" height="169.97036397296975" width="395.52"><g><svg viewBox="0 0 395.52 169.97036397296975" height="169.97036397296975" width="395.52"><g><svg viewBox="0 0 395.52 169.97036397296975" height="169.97036397296975" width="395.52"><g transform="matrix(1,0,0,1,0,110.37008324852955)"><svg viewBox="0 0 395.52 59.600280724440196" height="59.600280724440196" width="395.52"><g id="textblocktransform"><svg viewBox="0 0 395.52 59.600280724440196" height="59.600280724440196" width="395.52" id="textblock"><g><svg viewBox="0 0 395.52 48.7390336384733" height="48.7390336384733" width="395.52"><g transform="matrix(1,0,0,1,0,0)"><svg width="395.52" viewBox="-0.49719000000000335 -35.47747 390.08486027589646 48.06926" height="48.7390336384733" data-palette-color="#3d3839"><path d="M39.084-25.722l6.347-0.652-2.448 32.902c-0.061 0.65-0.292 1.23-0.696 1.741-0.397 0.51-0.91 0.864-1.539 1.063v0c-0.645 0.18-1.273 0.171-1.883-0.028-0.61-0.199-1.112-0.552-1.506-1.061v0l-13.373-17.625-9.536 19.98c-0.224 0.492-0.558 0.892-1.003 1.199-0.452 0.301-0.949 0.48-1.493 0.536v0c-0.749 0.077-1.437-0.093-2.063-0.512-0.626-0.418-1.045-1.005-1.257-1.761v0l-9.131-31.712 6.336-0.652 6.479 22.335 8.242-16.731c0.224-0.492 0.558-0.892 1.002-1.199 0.445-0.3 0.943-0.479 1.493-0.535v0c0.544-0.056 1.061 0.018 1.551 0.222 0.491 0.211 0.913 0.533 1.266 0.966v0l11.424 14.709zM56.432-29.814l0.482 5.65-6.268 0.534-0.481-5.65zM57.37-18.814l2.218 26.026-6.267 0.534-2.218-26.025zM76.44-0.376l0.477 6.261-2.801 0.214c-0.897 0.068-1.866-0.011-2.907-0.239-1.047-0.228-2.039-0.657-2.977-1.288-0.937-0.631-1.738-1.482-2.401-2.554-0.664-1.073-1.057-2.42-1.181-4.042v0l-2.155-28.258 6.271-0.479 2.156 28.258c0.059 0.771 0.345 1.368 0.859 1.79 0.52 0.422 1.139 0.605 1.857 0.55v0zM107.065-33.209l1.752 28.285c0.067 1.078-0.01 2.055-0.229 2.93-0.226 0.876-0.542 1.653-0.948 2.333-0.412 0.68-0.9 1.268-1.464 1.764-0.57 0.496-1.173 0.908-1.807 1.234-0.627 0.333-1.273 0.586-1.937 0.761-0.657 0.181-1.281 0.29-1.873 0.327v0l-11.318 0.701c-1.078 0.067-2.051-0.01-2.92-0.23-0.869-0.22-1.643-0.539-2.324-0.958-0.674-0.419-1.259-0.911-1.754-1.475-0.496-0.57-0.911-1.173-1.244-1.806-0.326-0.628-0.58-1.273-0.762-1.937-0.174-0.657-0.279-1.275-0.315-1.854v0l-0.526-8.494c-0.099-1.604 0.109-2.982 0.626-4.136 0.516-1.154 1.192-2.108 2.027-2.861 0.835-0.753 1.755-1.314 2.761-1.684 1.012-0.37 1.951-0.582 2.816-0.635v0l11.318-0.701 0.388 6.268-11.268 0.698c-0.832 0.052-1.454 0.304-1.867 0.757-0.406 0.453-0.584 1.088-0.533 1.906v0l0.523 8.444c0.053 0.852 0.306 1.484 0.759 1.897 0.453 0.406 1.088 0.584 1.906 0.533v0l11.319-0.701c0.852-0.053 1.474-0.308 1.866-0.767 0.385-0.465 0.553-1.106 0.502-1.925v0l-1.752-28.286zM139.946-6.239v0c0.046 1.079-0.05 2.054-0.286 2.924-0.237 0.871-0.568 1.642-0.994 2.314-0.425 0.672-0.925 1.25-1.498 1.735-0.573 0.485-1.18 0.884-1.821 1.198-0.64 0.321-1.291 0.562-1.951 0.723-0.667 0.168-1.297 0.265-1.889 0.29v0l-16.995 0.718-0.265-6.274 16.945-0.716c0.853-0.036 1.486-0.28 1.9-0.731 0.421-0.458 0.614-1.097 0.58-1.916v0c-0.151-1.668-1.032-2.469-2.644-2.401v0l-9.731 0.411c-1.385 0.059-2.571-0.135-3.558-0.58-0.986-0.439-1.794-1.008-2.424-1.709-0.637-0.7-1.106-1.461-1.408-2.283-0.302-0.828-0.468-1.605-0.498-2.331v0c-0.059-1.399 0.141-2.588 0.6-3.568 0.459-0.98 1.056-1.783 1.79-2.408 0.728-0.625 1.529-1.089 2.403-1.393 0.875-0.304 1.698-0.472 2.471-0.505v0l15.426-0.651 0.265 6.274-15.376 0.65c-0.32 0.014-0.571 0.061-0.755 0.142-0.183 0.081-0.316 0.183-0.397 0.307-0.088 0.124-0.136 0.256-0.144 0.396-0.008 0.134-0.009 0.267-0.003 0.401v0c0.024 0.253 0.079 0.45 0.165 0.593 0.086 0.143 0.19 0.242 0.313 0.297 0.123 0.062 0.261 0.092 0.415 0.093 0.153 0 0.303-0.003 0.45-0.009v0l9.731-0.411c1.612-0.068 2.993 0.164 4.143 0.695 1.15 0.532 2.09 1.223 2.82 2.073 0.73 0.85 1.273 1.781 1.629 2.794 0.357 1.019 0.554 1.972 0.592 2.858zM172.151-15.66v0c0.021 0.866-0.11 1.806-0.392 2.821-0.282 1.014-0.753 1.962-1.412 2.844-0.666 0.876-1.545 1.618-2.638 2.224-1.086 0.606-2.418 0.928-3.998 0.966v0l-11.327 0.272-0.143-5.968 11.327-0.272c0.853-0.02 1.507-0.296 1.961-0.827 0.454-0.538 0.672-1.193 0.653-1.966v0c-0.02-0.82-0.295-1.457-0.826-1.911-0.538-0.454-1.176-0.672-1.917-0.654v0l-11.326 0.271c-0.853 0.02-1.507 0.296-1.961 0.828-0.461 0.538-0.682 1.193-0.663 1.966v0l0.21 8.768c0.02 0.84 0.299 1.487 0.837 1.94 0.538 0.454 1.193 0.672 1.966 0.653v0l11.277-0.27 0.144 5.988-11.327 0.272c-0.873 0.021-1.816-0.11-2.83-0.393-1.014-0.282-1.959-0.757-2.835-1.422-0.876-0.659-1.617-1.535-2.224-2.628-0.606-1.086-0.928-2.418-0.966-3.998v0l-0.211-8.817c-0.021-0.873 0.11-1.816 0.392-2.83 0.276-1.014 0.747-1.958 1.412-2.835 0.666-0.876 1.542-1.617 2.628-2.224 1.092-0.606 2.428-0.928 4.008-0.966v0l11.326-0.272c0.866-0.021 1.806 0.11 2.821 0.393 1.02 0.282 1.969 0.753 2.844 1.412 0.876 0.666 1.618 1.545 2.224 2.637 0.606 1.086 0.928 2.418 0.966 3.998zM199.262-24.475l0.041 6.28-14.14 0.092c-0.853 0.006-1.495 0.223-1.925 0.653-0.431 0.429-0.643 1.054-0.638 1.874v0l0.113 17.33-6.29 0.041-0.113-17.329c-0.007-1.073 0.123-2.041 0.391-2.903 0.268-0.855 0.629-1.607 1.085-2.257 0.456-0.656 0.982-1.216 1.579-1.681 0.59-0.464 1.211-0.845 1.863-1.142 0.651-0.291 1.31-0.509 1.976-0.653 0.666-0.138 1.289-0.208 1.868-0.212v0zM209.965-35.449l-0.025 5.669-6.29-0.028 0.025-5.669zM209.916-24.41l-0.116 26.12-6.29-0.028 0.116-26.12zM244.05-15.153v0c-0.016 0.867-0.186 1.8-0.512 2.802-0.325 1.001-0.836 1.928-1.531 2.782-0.702 0.847-1.612 1.551-2.73 2.11-1.11 0.56-2.456 0.825-4.035 0.796v0l-11.328-0.208 0.11-5.969 11.328 0.208c0.853 0.016 1.518-0.232 1.994-0.743 0.476-0.518 0.722-1.164 0.736-1.937v0c0.015-0.82-0.233-1.468-0.745-1.944-0.518-0.476-1.147-0.721-1.887-0.735v0l-11.328-0.208c-0.853-0.016-1.518 0.232-1.994 0.743-0.483 0.518-0.732 1.163-0.745 1.937v0l-0.162 8.769c-0.015 0.84 0.236 1.498 0.754 1.974 0.518 0.476 1.164 0.722 1.937 0.735v0l11.278 0.208-0.11 5.989-11.328-0.209c-0.873-0.016-1.81-0.187-2.811-0.511-1.001-0.325-1.925-0.839-2.772-1.541-0.847-0.696-1.551-1.602-2.111-2.72-0.56-1.11-0.825-2.456-0.796-4.035v0l0.162-8.818c0.016-0.873 0.187-1.81 0.512-2.812 0.318-1.001 0.829-1.925 1.531-2.772 0.702-0.847 1.609-1.551 2.72-2.11 1.117-0.56 2.466-0.825 4.045-0.796v0l11.328 0.208c0.867 0.016 1.8 0.186 2.801 0.512 1.008 0.325 1.935 0.836 2.782 1.531 0.847 0.702 1.551 1.612 2.111 2.729 0.56 1.11 0.825 2.456 0.796 4.036zM273.274-5.412v0c-0.04 1.079-0.212 2.044-0.517 2.893-0.305 0.849-0.696 1.592-1.173 2.229-0.477 0.636-1.02 1.173-1.63 1.611-0.61 0.438-1.246 0.788-1.91 1.051-0.664 0.269-1.331 0.458-2.002 0.566-0.678 0.115-1.313 0.162-1.906 0.141v0l-16.999-0.625 0.231-6.276 16.948 0.623c0.853 0.031 1.504-0.162 1.953-0.579 0.456-0.424 0.699-1.045 0.729-1.864v0c-0.018-1.675-0.834-2.542-2.446-2.602v0l-9.734-0.358c-1.386-0.051-2.553-0.337-3.501-0.859-0.948-0.515-1.709-1.147-2.282-1.895-0.58-0.748-0.987-1.544-1.223-2.386-0.236-0.849-0.34-1.637-0.313-2.363v0c0.051-1.399 0.345-2.569 0.879-3.51 0.535-0.941 1.193-1.694 1.975-2.26 0.775-0.565 1.61-0.965 2.505-1.198 0.896-0.234 1.73-0.337 2.503-0.309v0l15.43 0.567-0.231 6.276-15.379-0.565c-0.32-0.012-0.574 0.016-0.764 0.082-0.189 0.066-0.329 0.158-0.42 0.275-0.098 0.116-0.156 0.244-0.174 0.384-0.018 0.133-0.03 0.266-0.035 0.399v0c0.004 0.254 0.043 0.455 0.118 0.604 0.075 0.15 0.171 0.256 0.288 0.321 0.117 0.071 0.253 0.113 0.406 0.125 0.153 0.012 0.303 0.021 0.449 0.027v0l9.734 0.357c1.612 0.059 2.971 0.399 4.075 1.021 1.105 0.621 1.987 1.384 2.648 2.289 0.661 0.905 1.129 1.876 1.404 2.913 0.275 1.044 0.396 2.009 0.364 2.895zM282.578 0.709v0c-0.021 0.439-0.124 0.842-0.309 1.207-0.192 0.371-0.434 0.693-0.727 0.966-0.293 0.266-0.633 0.47-1.021 0.611-0.387 0.141-0.791 0.202-1.21 0.182v0c-0.433-0.021-0.835-0.121-1.207-0.299-0.365-0.178-0.684-0.414-0.957-0.707-0.266-0.3-0.469-0.643-0.611-1.031-0.142-0.381-0.202-0.791-0.181-1.23v0c0.02-0.413 0.119-0.805 0.297-1.177 0.178-0.372 0.414-0.691 0.707-0.957 0.3-0.272 0.641-0.483 1.022-0.631 0.388-0.148 0.798-0.212 1.231-0.191v0c0.42 0.02 0.815 0.123 1.186 0.308 0.371 0.185 0.69 0.427 0.956 0.727 0.266 0.293 0.477 0.634 0.632 1.022 0.148 0.388 0.212 0.788 0.192 1.2zM312.803-0.597l-0.377 6.269-17.009-1.024c-0.865-0.052-1.804-0.262-2.818-0.631-1.013-0.368-1.934-0.928-2.764-1.679-0.836-0.752-1.514-1.704-2.032-2.857-0.518-1.153-0.729-2.542-0.63-4.166v0l0.511-8.494c0.036-0.592 0.14-1.214 0.313-1.865 0.179-0.65 0.432-1.293 0.757-1.928 0.332-0.635 0.746-1.234 1.24-1.799 0.489-0.572 1.072-1.061 1.752-1.467 0.679-0.413 1.453-0.731 2.321-0.952 0.868-0.222 1.841-0.3 2.92-0.235v0l17.009 1.024-0.378 6.269-17.009-1.024c-0.819-0.049-1.453 0.123-1.904 0.516-0.451 0.394-0.703 1.023-0.755 1.888v0l-0.509 8.445c-0.049 0.819 0.129 1.46 0.535 1.925 0.406 0.459 1.029 0.713 1.868 0.764v0zM346.855-8.984l-0.672 8.483c-0.085 1.077-0.298 2.033-0.638 2.869-0.34 0.836-0.759 1.562-1.256 2.177-0.503 0.616-1.069 1.129-1.696 1.541-0.634 0.411-1.289 0.734-1.963 0.969-0.674 0.241-1.349 0.402-2.024 0.481-0.676 0.087-1.313 0.107-1.911 0.06v0l-11.295-0.894c-0.864-0.068-1.799-0.296-2.804-0.683-1.006-0.387-1.917-0.964-2.732-1.731-0.822-0.767-1.481-1.732-1.978-2.895-0.496-1.163-0.681-2.555-0.552-4.177v0l0.671-8.483c0.127-1.602 0.527-2.938 1.2-4.008 0.673-1.07 1.476-1.92 2.408-2.548 0.926-0.629 1.916-1.056 2.97-1.28 1.054-0.224 2.013-0.302 2.878-0.233v0l11.294 0.893c1.608 0.127 2.951 0.524 4.029 1.192 1.077 0.667 1.927 1.467 2.549 2.398 0.622 0.925 1.049 1.915 1.279 2.97 0.231 1.055 0.312 2.021 0.243 2.899zM339.923-0.996l0.667-8.434c0.068-0.864-0.097-1.522-0.496-1.975-0.399-0.453-1.01-0.712-1.834-0.777v0l-11.245-0.89c-0.837-0.066-1.489 0.096-1.954 0.487-0.466 0.391-0.731 0.995-0.796 1.813v0l-0.671 8.484c-0.065 0.817 0.102 1.463 0.499 1.935 0.398 0.466 1.015 0.732 1.853 0.799v0l11.244 0.889c0.857 0.068 1.509-0.098 1.956-0.497 0.453-0.406 0.712-1.017 0.777-1.834zM375.47-6.08l-1.754 17.241-6.258-0.636 1.754-17.241c0.083-0.816-0.069-1.458-0.457-1.927-0.388-0.468-1.006-0.746-1.855-0.832v0l-8.128-0.827-2.009 19.738-6.248-0.635 2.329-22.882c0.045-0.438 0.165-0.834 0.362-1.19 0.198-0.362 0.457-0.667 0.777-0.916 0.314-0.256 0.672-0.444 1.072-0.564 0.401-0.12 0.817-0.158 1.248-0.114v0l11.282 1.148c0.862 0.088 1.775 0.335 2.739 0.741 0.964 0.406 1.859 0.99 2.687 1.751v0l0.195-1.92 8.466 0.861c0.59 0.06 1.207 0.19 1.85 0.389 0.642 0.206 1.274 0.485 1.896 0.837 0.62 0.358 1.202 0.796 1.746 1.313 0.55 0.518 1.015 1.125 1.392 1.82 0.386 0.689 0.671 1.472 0.857 2.349 0.185 0.883 0.223 1.859 0.114 2.927v0l-1.754 17.241-6.248-0.636 1.755-17.241c0.083-0.816-0.059-1.457-0.428-1.923-0.361-0.466-0.967-0.742-1.815-0.828v0l-5.631-0.573c0.134 0.791 0.155 1.634 0.064 2.529z" opacity="1" transform="matrix(1,0,0,1,0,0)" fill="#3d3839" class="wordmark-text-0" data-fill-palette-color="primary" id="text-0"></path></svg></g></svg></g><g transform="matrix(1,0,0,1,118.31980799999998,52.59111463249909)"><svg viewBox="0 0 158.88038400000002 7.009166091941105" height="7.009166091941105" width="158.88038400000002"><g transform="matrix(1,0,0,1,0,0)"><svg width="158.88038400000002" viewBox="3.64 -37.84 868.77 38.330000000000005" height="7.009166091941105" data-palette-color="#ffc604"><path d="M38.62-20.36L38.62-14.65Q38.62-11.45 37.51-8.76 36.4-6.08 34.45-4.14 32.5-2.2 29.81-1.1 27.12 0 23.97 0L23.97 0 6.84 0Q6.15 0 5.57-0.24 4.98-0.49 4.55-0.92 4.13-1.34 3.88-1.93 3.64-2.51 3.64-3.2L3.64-3.2 3.64-31.81Q3.64-32.47 3.88-33.06 4.13-33.64 4.55-34.08 4.98-34.52 5.57-34.77 6.15-35.01 6.84-35.01L6.84-35.01 23.97-35.01Q27.12-35.01 29.81-33.91 32.5-32.81 34.45-30.87 36.4-28.93 37.51-26.23 38.62-23.54 38.62-20.36L38.62-20.36ZM32.28-14.65L32.28-20.36Q32.28-22.22 31.68-23.75 31.08-25.29 29.98-26.38 28.88-27.47 27.36-28.06 25.83-28.66 23.97-28.66L23.97-28.66 9.99-28.66 9.99-6.35 23.97-6.35Q25.83-6.35 27.36-6.95 28.88-7.54 29.98-8.63 31.08-9.72 31.68-11.24 32.28-12.77 32.28-14.65L32.28-14.65ZM50.58-37.55L50.58-31.81 44.24-31.81 44.24-37.55 50.58-37.55ZM50.58-26.39L50.58 0 44.24 0 44.24-26.39 50.58-26.39ZM81.42-26.39L88.15-26.39Q87.08-23.05 85.64-19.8 84.2-16.55 82.33-13.61 80.46-10.67 78.16-8.17 75.85-5.66 73.05-3.85 70.26-2.03 66.97-0.99 63.69 0.05 59.86 0.05L59.86 0.05Q59.2 0.05 58.61-0.2 58.03-0.44 57.59-0.87 57.15-1.29 56.9-1.87 56.66-2.44 56.66-3.1L56.66-3.1 56.66-26.39 63.01-26.39 63.01-6.54Q65.33-6.54 67.46-7.54 69.6-8.54 71.5-10.19 73.41-11.84 75.03-13.94 76.66-16.04 77.92-18.25 79.19-20.46 80.09-22.58 80.98-24.71 81.42-26.39L81.42-26.39ZM118.82-17.65L118.82-17.65Q118.82-16.33 118.35-14.81 117.89-13.28 116.85-11.98 115.81-10.67 114.14-9.79 112.47-8.91 110.08-8.91L110.08-8.91 98.63-8.91 98.63-14.94 110.08-14.94Q111.37-14.94 112.08-15.73 112.79-16.53 112.79-17.7L112.79-17.7Q112.79-18.95 111.99-19.65 111.2-20.36 110.08-20.36L110.08-20.36 98.63-20.36Q97.33-20.36 96.62-19.57 95.92-18.77 95.92-17.6L95.92-17.6 95.92-8.74Q95.92-7.47 96.71-6.76 97.5-6.05 98.67-6.05L98.67-6.05 110.08-6.05 110.08 0 98.63 0Q97.31 0 95.78-0.46 94.26-0.93 92.95-1.97 91.64-3 90.76-4.68 89.89-6.35 89.89-8.74L89.89-8.74 89.89-17.65Q89.89-18.97 90.35-20.5 90.81-22.02 91.85-23.33 92.89-24.63 94.56-25.51 96.23-26.39 98.63-26.39L98.63-26.39 110.08-26.39Q111.39-26.39 112.92-25.93 114.45-25.46 115.75-24.43 117.06-23.39 117.94-21.72 118.82-20.04 118.82-17.65ZM145.79-37.55L145.79-31.81 139.44-31.81 139.44-37.55 145.79-37.55ZM145.79-26.39L145.79 0 139.44 0 139.44-26.39 145.79-26.39ZM181.11-14.65L181.11 0 174.77 0 174.77-14.65Q174.77-15.89 174.34-16.88 173.91-17.87 173.18-18.58 172.45-19.29 171.46-19.67 170.47-20.04 169.32-20.04L169.32-20.04 158.21-20.04 158.21 0 151.86 0 151.86-23.24Q151.86-23.9 152.11-24.48 152.35-25.05 152.79-25.48 153.23-25.9 153.82-26.15 154.4-26.39 155.06-26.39L155.06-26.39 169.37-26.39Q170.57-26.39 171.9-26.12 173.23-25.85 174.53-25.26 175.84-24.66 177.02-23.74 178.21-22.83 179.12-21.52 180.04-20.21 180.58-18.51 181.11-16.8 181.11-14.65L181.11-14.65ZM209.89-26.39L209.89-20.04 198.81-20.04 198.81 0 192.39 0 192.39-20.04 184.14-20.04 184.14-26.39 192.39-26.39 192.39-35.01 198.81-35.01 198.81-26.39 209.89-26.39ZM242.68-17.5L242.68-8.91Q242.68-7.28 242.27-5.97 241.85-4.66 241.17-3.67 240.48-2.69 239.58-1.99 238.68-1.29 237.69-0.85 236.7-0.42 235.69-0.21 234.67 0 233.77 0L233.77 0 222.32 0Q221 0 219.44-0.46 217.88-0.93 216.54-1.99 215.21-3.05 214.32-4.75 213.43-6.45 213.43-8.91L213.43-8.91 213.43-17.5Q213.43-19.95 214.32-21.64 215.21-23.34 216.54-24.4 217.88-25.46 219.44-25.93 221-26.39 222.32-26.39L222.32-26.39 233.77-26.39Q236.21-26.39 237.92-25.51 239.63-24.63 240.68-23.3 241.73-21.97 242.2-20.41 242.68-18.85 242.68-17.5L242.68-17.5ZM236.33-8.91L236.33-17.46Q236.33-18.77 235.67-19.41 235.01-20.04 233.77-20.04L233.77-20.04 222.37-20.04Q221.1-20.04 220.44-19.4 219.78-18.75 219.78-17.5L219.78-17.5 219.78-8.91Q219.78-7.67 220.44-7.01 221.1-6.35 222.37-6.35L222.37-6.35 233.77-6.35Q235.06-6.35 235.7-7.01 236.33-7.67 236.33-8.91L236.33-8.91ZM287.94-26.39L287.94-20.04 276.85-20.04 276.85 0 270.43 0 270.43-20.04 262.18-20.04 262.18-26.39 270.43-26.39 270.43-35.01 276.85-35.01 276.85-26.39 287.94-26.39ZM321.46-17.5L321.46 0 315.11 0 315.11-17.5Q315.11-18.75 314.47-19.4 313.84-20.04 312.57-20.04L312.57-20.04 301.12-20.04 301.12-26.39 312.57-26.39Q313.47-26.39 314.47-26.18 315.48-25.98 316.46-25.54 317.45-25.1 318.36-24.4 319.26-23.71 319.94-22.72 320.63-21.73 321.04-20.43 321.46-19.14 321.46-17.5L321.46-17.5ZM298.56-37.55L298.56 0 292.21 0 292.21-37.55 298.56-37.55ZM355.66-17.65L355.66-17.65Q355.66-16.33 355.19-14.81 354.73-13.28 353.69-11.98 352.66-10.67 350.98-9.79 349.31-8.91 346.92-8.91L346.92-8.91 335.47-8.91 335.47-14.94 346.92-14.94Q348.21-14.94 348.92-15.73 349.63-16.53 349.63-17.7L349.63-17.7Q349.63-18.95 348.83-19.65 348.04-20.36 346.92-20.36L346.92-20.36 335.47-20.36Q334.17-20.36 333.47-19.57 332.76-18.77 332.76-17.6L332.76-17.6 332.76-8.74Q332.76-7.47 333.55-6.76 334.35-6.05 335.52-6.05L335.52-6.05 346.92-6.05 346.92 0 335.47 0Q334.15 0 332.62-0.46 331.1-0.93 329.79-1.97 328.49-3 327.61-4.68 326.73-6.35 326.73-8.74L326.73-8.74 326.73-17.65Q326.73-18.97 327.19-20.5 327.66-22.02 328.69-23.33 329.73-24.63 331.4-25.51 333.08-26.39 335.47-26.39L335.47-26.39 346.92-26.39Q348.24-26.39 349.76-25.93 351.29-25.46 352.59-24.43 353.9-23.39 354.78-21.72 355.66-20.04 355.66-17.65ZM399.28-26.39L399.28-20.04 385-20.04Q383.71-20.04 383.05-19.4 382.39-18.75 382.39-17.5L382.39-17.5 382.39 0 376.04 0 376.04-17.5Q376.04-19.14 376.45-20.43 376.87-21.73 377.57-22.72 378.26-23.71 379.16-24.4 380.07-25.1 381.06-25.54 382.05-25.98 383.06-26.18 384.07-26.39 384.95-26.39L384.95-26.39 399.28-26.39ZM431.75-17.65L431.75-17.65Q431.75-16.33 431.29-14.81 430.82-13.28 429.78-11.98 428.75-10.67 427.07-9.79 425.4-8.91 423.01-8.91L423.01-8.91 411.56-8.91 411.56-14.94 423.01-14.94Q424.3-14.94 425.01-15.73 425.72-16.53 425.72-17.7L425.72-17.7Q425.72-18.95 424.93-19.65 424.13-20.36 423.01-20.36L423.01-20.36 411.56-20.36Q410.27-20.36 409.56-19.57 408.85-18.77 408.85-17.6L408.85-17.6 408.85-8.74Q408.85-7.47 409.64-6.76 410.44-6.05 411.61-6.05L411.61-6.05 423.01-6.05 423.01 0 411.56 0Q410.24 0 408.71-0.46 407.19-0.93 405.88-1.97 404.58-3 403.7-4.68 402.82-6.35 402.82-8.74L402.82-8.74 402.82-17.65Q402.82-18.97 403.28-20.5 403.75-22.02 404.78-23.33 405.82-24.63 407.49-25.51 409.17-26.39 411.56-26.39L411.56-26.39 423.01-26.39Q424.33-26.39 425.85-25.93 427.38-25.46 428.69-24.43 429.99-23.39 430.87-21.72 431.75-20.04 431.75-17.65ZM463.07-17.65L463.07-8.74Q463.07-7.42 462.61-5.9 462.14-4.37 461.11-3.06 460.07-1.76 458.4-0.88 456.72 0 454.33 0L454.33 0 442.88 0Q441.56 0 440.04-0.46 438.51-0.93 437.2-1.97 435.9-3 435.02-4.68 434.14-6.35 434.14-8.74L434.14-8.74Q434.14-10.06 434.6-11.6 435.07-13.13 436.11-14.44 437.14-15.75 438.81-16.63 440.49-17.5 442.88-17.5L442.88-17.5 454.33-17.5 454.33-11.45 442.88-11.45Q441.59-11.45 440.88-10.66 440.17-9.86 440.17-8.69L440.17-8.69Q440.17-7.45 440.99-6.75 441.81-6.05 442.93-6.05L442.93-6.05 454.33-6.05Q455.62-6.05 456.33-6.84 457.04-7.62 457.04-8.79L457.04-8.79 457.04-17.65Q457.04-18.9 456.27-19.63 455.5-20.36 454.33-20.36L454.33-20.36 440.39-20.36 440.39-26.39 454.33-26.39Q455.65-26.39 457.17-25.93 458.7-25.46 460.01-24.43 461.31-23.39 462.19-21.72 463.07-20.04 463.07-17.65L463.07-17.65ZM480.08-6.35L480.08 0 477.25 0Q475.89 0 474.33-0.46 472.78-0.93 471.44-1.99 470.1-3.05 469.22-4.75 468.34-6.45 468.34-8.91L468.34-8.91 468.34-37.55 474.69-37.55 474.69-8.91Q474.69-7.74 475.42-7.04 476.15-6.35 477.25-6.35L477.25-6.35 480.08-6.35ZM507.72-17.5L507.72 0 501.37 0 501.37-17.5Q501.37-18.75 500.71-19.4 500.05-20.04 498.76-20.04L498.76-20.04 490.51-20.04 490.51 0 484.16 0 484.16-23.24Q484.16-23.9 484.4-24.48 484.65-25.05 485.09-25.48 485.53-25.9 486.11-26.15 486.7-26.39 487.36-26.39L487.36-26.39 498.81-26.39Q500.13-26.39 501.64-25.93 503.15-25.46 504.52-24.44L504.52-24.44 504.52-26.39 513.11-26.39Q514.02-26.39 515.02-26.18 516.02-25.98 517.01-25.54 518-25.1 518.9-24.4 519.8-23.71 520.49-22.72 521.17-21.73 521.59-20.43 522-19.14 522-17.5L522-17.5 522 0 515.65 0 515.65-17.5Q515.65-18.75 515.03-19.4 514.41-20.04 513.11-20.04L513.11-20.04 507.4-20.04Q507.72-18.87 507.72-17.5L507.72-17.5ZM572.8-17.5L572.8-8.91Q572.8-7.28 572.39-5.97 571.97-4.66 571.29-3.67 570.6-2.69 569.7-1.99 568.8-1.29 567.81-0.85 566.82-0.42 565.81-0.21 564.79 0 563.89 0L563.89 0 552.44 0Q551.12 0 549.56-0.46 548-0.93 546.67-1.99 545.34-3.05 544.44-4.75 543.55-6.45 543.55-8.91L543.55-8.91 543.55-17.5Q543.55-19.95 544.44-21.64 545.34-23.34 546.67-24.4 548-25.46 549.56-25.93 551.12-26.39 552.44-26.39L552.44-26.39 563.89-26.39Q566.33-26.39 568.04-25.51 569.75-24.63 570.8-23.3 571.85-21.97 572.33-20.41 572.8-18.85 572.8-17.5L572.8-17.5ZM566.45-8.91L566.45-17.46Q566.45-18.77 565.79-19.41 565.14-20.04 563.89-20.04L563.89-20.04 552.49-20.04Q551.22-20.04 550.56-19.4 549.9-18.75 549.9-17.5L549.9-17.5 549.9-8.91Q549.9-7.67 550.56-7.01 551.22-6.35 552.49-6.35L552.49-6.35 563.89-6.35Q565.18-6.35 565.82-7.01 566.45-7.67 566.45-8.91L566.45-8.91ZM601.56-26.39L601.56-20.04 587.2-20.04 587.2-26.39 601.56-26.39ZM601.56-37.84L601.56-31.49 587.25-31.49Q585.96-31.49 585.3-30.85 584.64-30.2 584.64-28.96L584.64-28.96 584.64 0 578.29 0 578.29-28.96Q578.29-30.59 578.71-31.88 579.12-33.18 579.82-34.17 580.51-35.16 581.42-35.85 582.32-36.55 583.31-36.99 584.3-37.43 585.3-37.63 586.3-37.84 587.2-37.84L587.2-37.84 601.56-37.84ZM653.38-35.01L653.38-28.66 639.4-28.66 639.4 0 633.05 0 633.05-28.66 619.03-28.66 619.03-35.01 653.38-35.01ZM686.27-35.01L693.35-35.01 676.77-1.25Q676.38-0.46 675.61 0.01 674.84 0.49 673.91 0.49L673.91 0.49Q673.01 0.49 672.24 0.01 671.47-0.46 671.06-1.25L671.06-1.25 654.51-35.01 661.61-35.01 673.91-9.79 686.27-35.01ZM737.34-8.91L737.34-8.91Q737.34-7.28 736.92-5.97 736.51-4.66 735.82-3.67 735.14-2.69 734.24-1.99 733.33-1.29 732.34-0.85 731.36-0.42 730.34-0.21 729.33 0 728.43 0L728.43 0 711.24 0 711.24-6.35 728.38-6.35Q729.67-6.35 730.33-7.01 730.99-7.67 730.99-8.91L730.99-8.91Q730.87-11.45 728.43-11.45L728.43-11.45 718.59-11.45Q716.49-11.45 715.02-12.18 713.56-12.92 712.64-14.01 711.73-15.11 711.32-16.38 710.92-17.65 710.92-18.75L710.92-18.75Q710.92-20.87 711.68-22.33 712.43-23.78 713.58-24.68 714.73-25.59 716.07-25.99 717.42-26.39 718.59-26.39L718.59-26.39 734.19-26.39 734.19-20.04 718.64-20.04Q718.15-20.04 717.87-19.93 717.59-19.82 717.45-19.64 717.32-19.46 717.29-19.25 717.27-19.04 717.27-18.85L717.27-18.85Q717.29-18.46 717.42-18.24 717.54-18.02 717.72-17.92 717.9-17.82 718.14-17.81 718.37-17.8 718.59-17.8L718.59-17.8 728.43-17.8Q730.87-17.8 732.58-16.92 734.29-16.04 735.34-14.71 736.39-13.38 736.86-11.82 737.34-10.25 737.34-8.91ZM770.17-17.65L770.17-17.65Q770.17-16.33 769.71-14.81 769.24-13.28 768.21-11.98 767.17-10.67 765.5-9.79 763.82-8.91 761.43-8.91L761.43-8.91 749.98-8.91 749.98-14.94 761.43-14.94Q762.73-14.94 763.43-15.73 764.14-16.53 764.14-17.7L764.14-17.7Q764.14-18.95 763.35-19.65 762.55-20.36 761.43-20.36L761.43-20.36 749.98-20.36Q748.69-20.36 747.98-19.57 747.27-18.77 747.27-17.6L747.27-17.6 747.27-8.74Q747.27-7.47 748.06-6.76 748.86-6.05 750.03-6.05L750.03-6.05 761.43-6.05 761.43 0 749.98 0Q748.66 0 747.14-0.46 745.61-0.93 744.31-1.97 743-3 742.12-4.68 741.24-6.35 741.24-8.74L741.24-8.74 741.24-17.65Q741.24-18.97 741.7-20.5 742.17-22.02 743.21-23.33 744.24-24.63 745.92-25.51 747.59-26.39 749.98-26.39L749.98-26.39 761.43-26.39Q762.75-26.39 764.28-25.93 765.8-25.46 767.11-24.43 768.41-23.39 769.29-21.72 770.17-20.04 770.17-17.65ZM797.54-26.39L797.54-20.04 783.26-20.04Q781.96-20.04 781.3-19.4 780.64-18.75 780.64-17.5L780.64-17.5 780.64 0 774.3 0 774.3-17.5Q774.3-19.14 774.71-20.43 775.13-21.73 775.82-22.72 776.52-23.71 777.42-24.4 778.32-25.1 779.31-25.54 780.3-25.98 781.31-26.18 782.33-26.39 783.21-26.39L783.21-26.39 797.54-26.39ZM808.16-37.55L808.16-31.81 801.81-31.81 801.81-37.55 808.16-37.55ZM808.16-26.39L808.16 0 801.81 0 801.81-26.39 808.16-26.39ZM842.63-17.65L842.63-17.65Q842.63-16.33 842.16-14.81 841.7-13.28 840.66-11.98 839.62-10.67 837.95-9.79 836.28-8.91 833.88-8.91L833.88-8.91 822.43-8.91 822.43-14.94 833.88-14.94Q835.18-14.94 835.89-15.73 836.59-16.53 836.59-17.7L836.59-17.7Q836.59-18.95 835.8-19.65 835.01-20.36 833.88-20.36L833.88-20.36 822.43-20.36Q821.14-20.36 820.43-19.57 819.72-18.77 819.72-17.6L819.72-17.6 819.72-8.74Q819.72-7.47 820.52-6.76 821.31-6.05 822.48-6.05L822.48-6.05 833.88-6.05 833.88 0 822.43 0Q821.12 0 819.59-0.46 818.06-0.93 816.76-1.97 815.45-3 814.57-4.68 813.69-6.35 813.69-8.74L813.69-8.74 813.69-17.65Q813.69-18.97 814.16-20.5 814.62-22.02 815.66-23.33 816.7-24.63 818.37-25.51 820.04-26.39 822.43-26.39L822.43-26.39 833.88-26.39Q835.2-26.39 836.73-25.93 838.26-25.46 839.56-24.43 840.87-23.39 841.75-21.72 842.63-20.04 842.63-17.65ZM872.41-8.91L872.41-8.91Q872.41-7.28 871.99-5.97 871.58-4.66 870.89-3.67 870.21-2.69 869.31-1.99 868.4-1.29 867.42-0.85 866.43-0.42 865.41-0.21 864.4 0 863.5 0L863.5 0 846.31 0 846.31-6.35 863.45-6.35Q864.74-6.35 865.4-7.01 866.06-7.67 866.06-8.91L866.06-8.91Q865.94-11.45 863.5-11.45L863.5-11.45 853.66-11.45Q851.56-11.45 850.09-12.18 848.63-12.92 847.71-14.01 846.8-15.11 846.39-16.38 845.99-17.65 845.99-18.75L845.99-18.75Q845.99-20.87 846.75-22.33 847.51-23.78 848.65-24.68 849.8-25.59 851.14-25.99 852.49-26.39 853.66-26.39L853.66-26.39 869.26-26.39 869.26-20.04 853.71-20.04Q853.22-20.04 852.94-19.93 852.66-19.82 852.52-19.64 852.39-19.46 852.36-19.25 852.34-19.04 852.34-18.85L852.34-18.85Q852.36-18.46 852.49-18.24 852.61-18.02 852.79-17.92 852.97-17.82 853.21-17.81 853.44-17.8 853.66-17.8L853.66-17.8 863.5-17.8Q865.94-17.8 867.65-16.92 869.36-16.04 870.41-14.71 871.46-13.38 871.93-11.82 872.41-10.25 872.41-8.91Z" opacity="1" transform="matrix(1,0,0,1,0,0)" fill="#ffc604" class="slogan-text-1" data-fill-palette-color="secondary" id="text-1"></path></svg></g></svg></g></svg></g></svg></g><g transform="matrix(1,0,0,1,150.700831833697,0)"><svg viewBox="0 0 94.11833633260599 96.43325421214423" height="96.43325421214423" width="94.11833633260599"><g><svg xmlns="http://www.w3.org/2000/svg" xmlns:xlink="http://www.w3.org/1999/xlink" version="1.1" x="0" y="0" viewBox="9.975075906937068 10.087000000000002 79.95835842152584 81.925" enable-background="new 0 0 100 100" xml:space="preserve" height="96.43325421214423" width="94.11833633260599" class="icon-icon-0" data-fill-palette-color="accent" id="icon-0"><g fill="#ffc604" data-fill-palette-color="accent"><path d="M51.338 92.012h-2.45c-23.313 0-37.08-14.625-38.764-41.181-0.839-13.324 1.861-23.116 8.253-29.934 6.523-6.958 16.946-10.553 30.985-10.688 0.214-0.079 0.446-0.122 0.688-0.122 14.319 0 24.918 3.557 31.503 10.571 6.389 6.805 9.079 16.674 8.227 30.172C88.085 77.771 74.792 92.012 51.338 92.012zM50.721 14.091c-0.208 0.074-0.433 0.114-0.667 0.115-13.238 0.021-22.914 3.193-28.758 9.427-5.597 5.97-7.945 14.784-7.179 26.947 1.083 17.076 7.995 37.433 34.772 37.433h2.45c21.297 0 32.888-12.594 34.45-37.433 0.779-12.336-1.56-21.227-7.15-27.183C72.938 17.325 63.548 14.195 50.721 14.091z" fill="#ffc604" data-fill-palette-color="accent"></path></g><g fill="#ffc604" data-fill-palette-color="accent"><path d="M50.624 76.514c-21.299 0-22.465-16.771-23.091-25.782-0.363-5.134-0.42-10.885 3.457-15.045 3.56-3.82 9.904-5.677 19.395-5.677 9.218 0 15.349 1.771 18.745 5.413 3.987 4.278 3.561 10.355 3.218 15.239-0.039 0.562-0.074 1.148-0.11 1.751C71.693 61.426 70.783 76.514 50.624 76.514zM50.385 34.009c-8.32 0-13.708 1.44-16.469 4.404-2.782 2.986-2.71 7.549-2.398 11.967 0.652 9.384 1.539 22.134 19.106 22.134 16.394 0 17.073-11.279 17.62-20.343 0.037-0.615 0.073-1.213 0.113-1.789 0.38-5.403 0.447-9.442-2.153-12.232C63.606 35.363 58.432 34.009 50.385 34.009z" fill="#ffc604" data-fill-palette-color="accent"></path></g><g fill="#ffc604" data-fill-palette-color="accent"><path d="M43.024 53.986c-0.109 0-0.219-0.009-0.33-0.027l-2.804-0.465c-1.09-0.181-1.827-1.21-1.646-2.3 0.181-1.09 1.211-1.824 2.3-1.646l2.804 0.465c1.09 0.181 1.827 1.21 1.646 2.3C44.833 53.292 43.985 53.986 43.024 53.986z" fill="#ffc604" data-fill-palette-color="accent"></path></g><g fill="#ffc604" data-fill-palette-color="accent"><path d="M57.258 53.986c-0.961 0-1.809-0.693-1.971-1.672-0.182-1.09 0.555-2.12 1.645-2.301l2.795-0.464c1.097-0.182 2.12 0.556 2.301 1.645 0.182 1.09-0.555 2.12-1.645 2.301l-2.795 0.465C57.477 53.978 57.366 53.986 57.258 53.986z" fill="#ffc604" data-fill-palette-color="accent"></path></g><g fill="#ffc604" data-fill-palette-color="accent"><path d="M43.433 62.949c0 0 0.719-2.916 6.308-2.916 5.599 0 6.753 2.916 6.753 2.916l-6.299 5.369L43.433 62.949z" fill="#ffc604" data-fill-palette-color="accent"></path></g><g fill="#ffc604" data-fill-palette-color="accent"><path d="M75.33 37.038c-0.378 0-0.743-0.143-1.021-0.401-0.895-0.832-3.396-3.128-4.214-3.76-0.818-0.645-3.476-2.351-4.432-2.955-0.662-0.418-0.892-1.276-0.525-1.968 0.113-0.215 2.824-5.254 7.163-5.254 0.994 0 1.982 0.266 2.937 0.79 2.311 1.271 3.663 2.988 4.022 5.102 0.679 4.006-2.671 7.791-2.813 7.95-0.269 0.299-0.646 0.479-1.049 0.497C75.375 37.037 75.353 37.038 75.33 37.038zM68.544 28.203c1.137 0.734 2.718 1.773 3.396 2.309 0.662 0.512 2.115 1.821 3.174 2.789 0.712-1.146 1.435-2.771 1.186-4.217-0.203-1.179-1.023-2.149-2.508-2.966-0.513-0.281-1.001-0.418-1.491-0.418C70.802 25.699 69.404 27.07 68.544 28.203z" fill="#ffc604" data-fill-palette-color="accent"></path></g><g fill="#ffc604" data-fill-palette-color="accent"><path d="M25.353 37.038c-0.022 0-0.045 0-0.067-0.001-0.402-0.018-0.779-0.197-1.048-0.496-0.144-0.159-3.498-3.945-2.819-7.951 0.358-2.114 1.711-3.83 4.021-5.101 0.956-0.524 1.944-0.79 2.938-0.79 4.339 0 7.048 5.04 7.161 5.255 0.365 0.692 0.137 1.549-0.525 1.968-0.956 0.604-3.612 2.311-4.418 2.946-0.824 0.64-3.326 2.937-4.222 3.769C26.095 36.895 25.73 37.038 25.353 37.038zM28.377 25.699c-0.491 0-0.979 0.137-1.494 0.419-1.483 0.816-2.304 1.786-2.506 2.964-0.249 1.446 0.477 3.074 1.19 4.219 1.059-0.968 2.514-2.28 3.179-2.796 0.673-0.531 2.252-1.57 3.388-2.304C31.271 27.059 29.883 25.699 28.377 25.699z" fill="#ffc604" data-fill-palette-color="accent"></path></g><g fill="#ffc604" data-fill-palette-color="accent"><path d="M28.238 55.867h-15.68c-0.552 0-1-0.447-1-1s0.448-1 1-1h15.68c0.552 0 1 0.447 1 1S28.79 55.867 28.238 55.867z" fill="#ffc604" data-fill-palette-color="accent"></path></g><g fill="#ffc604" data-fill-palette-color="accent"><path d="M24.916 82.803c-0.201 0-0.404-0.061-0.58-0.187-0.45-0.32-0.554-0.945-0.233-1.395l9.225-12.914c0.321-0.45 0.946-0.554 1.395-0.232 0.45 0.32 0.554 0.945 0.233 1.395l-9.225 12.914C25.536 82.657 25.228 82.803 24.916 82.803z" fill="#ffc604" data-fill-palette-color="accent"></path></g><g fill="#ffc604" data-fill-palette-color="accent"><path d="M50.006 91.012c-0.552 0-1-0.447-1-1V75.16c0-0.553 0.448-1 1-1 0.553 0 1 0.447 1 1v14.852C51.006 90.564 50.559 91.012 50.006 91.012z" fill="#ffc604" data-fill-palette-color="accent"></path></g><g fill="#ffc604" data-fill-palette-color="accent"><path d="M50.006 30.505c-0.552 0-1-0.448-1-1V14.654c0-0.552 0.448-1 1-1 0.553 0 1 0.448 1 1v14.852C51.006 30.058 50.559 30.505 50.006 30.505z" fill="#ffc604" data-fill-palette-color="accent"></path></g><g fill="#ffc604" data-fill-palette-color="accent"><path d="M33.588 37.052c-0.274 0-0.547-0.112-0.744-0.332l-3.921-4.362c-0.369-0.411-0.335-1.043 0.075-1.412 0.411-0.37 1.043-0.335 1.412 0.075l3.921 4.362c0.369 0.411 0.335 1.043-0.075 1.412C34.065 36.968 33.826 37.052 33.588 37.052z" fill="#ffc604" data-fill-palette-color="accent"></path></g><g fill="#ffc604" data-fill-palette-color="accent"><path d="M23.996 26.168c-0.291 0-0.579-0.126-0.776-0.369l-2.398-2.952c-0.349-0.429-0.283-1.059 0.145-1.407 0.428-0.349 1.059-0.283 1.407 0.145l2.398 2.952c0.349 0.429 0.283 1.059-0.145 1.407C24.44 26.095 24.217 26.168 23.996 26.168z" fill="#ffc604" data-fill-palette-color="accent"></path></g><g fill="#ffc604" data-fill-palette-color="accent"><path d="M87.638 55.867h-15.68c-0.553 0-1-0.447-1-1s0.447-1 1-1h15.68c0.553 0 1 0.447 1 1S88.19 55.867 87.638 55.867z" fill="#ffc604" data-fill-palette-color="accent"></path></g><g fill="#ffc604" data-fill-palette-color="accent"><path d="M75.279 82.803c-0.312 0-0.619-0.146-0.814-0.419L65.24 69.47c-0.321-0.449-0.217-1.074 0.232-1.395 0.448-0.322 1.073-0.217 1.395 0.232l9.225 12.914c0.321 0.449 0.217 1.074-0.232 1.395C75.684 82.742 75.48 82.803 75.279 82.803z" fill="#ffc604" data-fill-palette-color="accent"></path></g><g fill="#ffc604" data-fill-palette-color="accent"><path d="M66.607 37.052c-0.238 0-0.478-0.084-0.669-0.256-0.41-0.369-0.444-1.001-0.075-1.412l3.923-4.362c0.37-0.411 1.002-0.443 1.412-0.075 0.41 0.369 0.444 1.001 0.075 1.412l-3.923 4.362C67.153 36.94 66.881 37.052 66.607 37.052z" fill="#ffc604" data-fill-palette-color="accent"></path></g><g fill="#ffc604" data-fill-palette-color="accent"><path d="M76.199 26.168c-0.222 0-0.444-0.073-0.63-0.224-0.429-0.348-0.493-0.978-0.146-1.407l2.398-2.952c0.35-0.428 0.979-0.493 1.407-0.145s0.493 0.978 0.146 1.407l-2.398 2.952C76.778 26.042 76.49 26.168 76.199 26.168z" fill="#ffc604" data-fill-palette-color="accent"></path></g></svg></g></svg></g><g></g></svg></g></svg></g><defs></defs></svg><rect width="395.52" height="169.97036397296975" fill="none" stroke="none" visibility="hidden"></rect></g></svg></g></svg>